<svg width="40" height="40" viewBox="0 0 40 40" fill="none" xmlns="http://www.w3.org/2000/svg">
<circle cx="20" cy="20" r="20" fill="#211D1E"/>
<path d="M20.0001 12C15.5823 12 12 15.6723 12 20.2025C12 23.8266 14.2923 26.9013 17.4709 27.9859C17.8708 28.0618 18.0175 27.808 18.0175 27.5913C18.0175 27.3957 18.0101 26.7496 18.0067 26.0642C15.781 26.5604 15.3114 25.0964 15.3114 25.0964C14.9475 24.1483 14.4232 23.8962 14.4232 23.8962C13.6973 23.3871 14.4779 23.3975 14.4779 23.3975C15.2812 23.4554 15.7042 24.2428 15.7042 24.2428C16.4177 25.4968 17.5757 25.1343 18.0322 24.9247C18.104 24.3945 18.3114 24.0327 18.5402 23.8279C16.7632 23.6204 14.8953 22.9171 14.8953 19.7741C14.8953 18.8786 15.2078 18.1469 15.7196 17.5725C15.6365 17.3659 15.3627 16.5316 15.7971 15.4017C15.7971 15.4017 16.4689 15.1813 17.9977 16.2425C18.6358 16.0608 19.3202 15.9696 20.0001 15.9665C20.6799 15.9696 21.3649 16.0608 22.0042 16.2425C23.5311 15.1813 24.202 15.4017 24.202 15.4017C24.6375 16.5316 24.3635 17.3659 24.2804 17.5725C24.7934 18.1469 25.1038 18.8786 25.1038 19.7741C25.1038 22.9246 23.2323 23.6183 21.4508 23.8213C21.7378 24.0759 21.9935 24.5751 21.9935 25.3403C21.9935 26.4378 21.9842 27.3211 21.9842 27.5913C21.9842 27.8096 22.1282 28.0654 22.5337 27.9848C25.7107 26.899 28 23.8254 28 20.2025C28 15.6723 24.4182 12 20.0001 12Z" fill="white"/>
<path d="M15.0537 23.7207C15.0361 23.7611 14.9737 23.7732 14.9168 23.7455C14.8589 23.719 14.8264 23.664 14.8452 23.6235C14.8624 23.5819 14.9249 23.5704 14.9827 23.5982C15.0407 23.6247 15.0738 23.6802 15.0537 23.7207Z" fill="white"/>
<path d="M15.3769 24.0875C15.3389 24.1234 15.2644 24.1067 15.2139 24.05C15.1617 23.9934 15.1519 23.9176 15.1905 23.8812C15.2298 23.8453 15.302 23.8621 15.3543 23.9187C15.4066 23.976 15.4167 24.0512 15.3769 24.0875Z" fill="white"/>
<path d="M15.6918 24.5556C15.6429 24.5902 15.5629 24.5578 15.5135 24.4856C15.4645 24.4133 15.4645 24.3267 15.5145 24.292C15.5641 24.2573 15.6429 24.2885 15.693 24.3602C15.7418 24.4337 15.7418 24.5203 15.6918 24.5556Z" fill="white"/>
<path d="M16.1232 25.0073C16.0795 25.0564 15.9862 25.0432 15.918 24.9762C15.8482 24.9107 15.8287 24.8178 15.8726 24.7687C15.9169 24.7195 16.0107 24.7334 16.0795 24.7998C16.1487 24.8652 16.1699 24.9588 16.1232 25.0073Z" fill="white"/>
<path d="M16.7181 25.2697C16.6988 25.3333 16.609 25.3622 16.5186 25.3352C16.4283 25.3073 16.3692 25.2328 16.3874 25.1685C16.4062 25.1045 16.4964 25.0744 16.5875 25.1033C16.6777 25.131 16.7369 25.205 16.7181 25.2697Z" fill="white"/>
<path d="M17.3718 25.3182C17.374 25.3852 17.2973 25.4408 17.2024 25.442C17.1069 25.4441 17.0297 25.3899 17.0286 25.324C17.0286 25.2564 17.1036 25.2014 17.1991 25.1998C17.294 25.1979 17.3718 25.2517 17.3718 25.3182Z" fill="white"/>
<path d="M17.9798 25.213C17.9912 25.2783 17.9252 25.3454 17.8309 25.3633C17.7382 25.3805 17.6524 25.3402 17.6406 25.2754C17.6291 25.2084 17.6963 25.1413 17.7888 25.1239C17.8833 25.1073 17.9677 25.1465 17.9798 25.213Z" fill="white"/>
</svg>
