<svg width="40" height="40" viewBox="0 0 40 40" fill="none" xmlns="http://www.w3.org/2000/svg">
<circle cx="20" cy="20" r="20" fill="#211D1E"/>
<path fill-rule="evenodd" clip-rule="evenodd" d="M15.8581 12.7798C15.8581 13.7692 15.1133 14.5608 13.9176 14.5608H13.8956C12.7443 14.5608 12 13.7692 12 12.7798C12 11.7695 12.767 11 13.9401 11C15.1133 11 15.8358 11.7695 15.8581 12.7798ZM15.6322 15.9672V26.2712H12.2028V15.9672H15.6322ZM27.9999 26.2712L28 20.3632C28 17.1983 26.3082 15.7253 24.0514 15.7253C22.2306 15.7253 21.4154 16.7254 20.9603 17.4269V15.9675H17.5305C17.5757 16.9344 17.5305 26.2715 17.5305 26.2715H20.9603V20.5169C20.9603 20.2089 20.9826 19.9017 21.0732 19.6812C21.3211 19.066 21.8854 18.4291 22.8329 18.4291C24.0743 18.4291 24.5706 19.3739 24.5706 20.7586V26.2712H27.9999Z" fill="white"/>
</svg>
